<svg width="40" height="40" viewBox="0 0 40 40" fill="none" xmlns="http://www.w3.org/2000/svg">
<g clip-path="url(#clip0_15231_121848)">
<path d="M13.6288 29.8683L13.1904 30.121L13.1908 29.615C13.1908 29.615 13.1846 29.8738 13.3014 29.9384C13.4158 30.0018 13.6288 29.8683 13.6288 29.8683Z" fill="#8E3315"/>
<path d="M2.35547 29.3464C4.83161 34.0188 9.06662 37.5177 14.1287 39.0743C19.191 40.631 24.6656 40.1173 29.3484 37.6464C34.0313 35.1754 37.5387 30.9496 39.0992 25.8984C40.6595 20.8474 40.1344 15.3846 37.6583 10.7122C39.8911 17.7341 32.1174 20.201 32.1174 20.201L22.7089 25.1076L12.9307 30.1965C12.9307 30.1965 6.26651 34.4773 2.35547 29.3464Z" fill="#6B93C0"/>
<path d="M2.32031 29.3808C4.79645 34.0532 9.0314 37.5526 14.0936 39.1093C19.1557 40.666 24.6304 40.1523 29.3133 37.6814C33.9962 35.2105 37.5036 30.9846 39.0639 25.9335C40.6244 20.8824 40.1098 15.4197 37.6337 10.7474C39.8665 17.7693 32.0822 20.2359 32.0822 20.2359L22.6737 25.1426L12.8956 30.2314C12.8956 30.2314 6.23135 34.5117 2.32031 29.3808Z" fill="url(#paint0_linear_15231_121848)"/>
<path d="M31.8675 19.7139L32.5938 20.0662L31.8271 20.3733C31.8271 20.3733 32.1561 20.2182 32.1954 20.0662C32.2338 19.9174 31.8675 19.7139 31.8675 19.7139Z" fill="#251E73"/>
<path d="M37.7791 29.138C40.1971 24.4354 40.6438 18.9668 39.0209 13.9354C37.398 8.90398 33.8385 4.72173 29.1253 2.30883C24.4122 -0.104132 18.9316 -0.550132 13.889 1.06892C8.84653 2.68796 4.65531 6.23948 2.2373 10.9421C6.72422 5.09186 13.2115 10.0432 13.2115 10.0432L22.6333 14.9243L32.4166 20.0032C32.4166 20.0032 39.7513 22.9993 37.7791 29.138Z" fill="#6B93C0"/>
<path d="M37.7309 29.1186C40.1416 24.43 40.587 18.9777 38.969 13.9613C37.3509 8.94485 33.8019 4.77507 29.1028 2.36935C24.4038 -0.0364229 18.9394 -0.481098 13.912 1.13313C8.88446 2.74736 4.70572 6.28823 2.29492 10.9769C6.76847 5.14407 13.2364 10.0807 13.2364 10.0807L22.6301 14.9473L32.3843 20.011C32.3843 20.011 39.6971 22.9982 37.7309 29.1186Z" fill="url(#paint1_linear_15231_121848)"/>
<path d="M13.1938 10.5155L13.1855 9.98571L13.6495 10.2435C13.6495 10.2435 13.4153 10.1062 13.2964 10.1802C13.18 10.2526 13.1938 10.5155 13.1938 10.5155Z" fill="#741039"/>
<path d="M20.0102 0.106552C14.7133 0.106552 9.63326 2.20632 5.88777 5.94398C2.14228 9.68164 0.0380861 14.7509 0.0380859 20.0367C0.0380858 25.3226 2.14228 30.3919 5.88776 34.1295C9.63326 37.8672 14.7063 39.9568 20.0032 39.9568C13.2051 38.8179 13.2119 30.0395 13.2119 30.0395V20.0367V9.85705C13.2119 9.85705 13.2119 1.32071 20.0102 0.106552Z" fill="#6B93C0"/>
<path d="M20.0102 0.060051C14.7133 0.060051 9.63326 2.15983 5.88777 5.89749C2.14228 9.63506 0.0380864 14.7044 0.0380859 19.9902C0.0380855 25.276 2.14228 30.3454 5.88776 34.083C9.63326 37.8207 14.7063 39.9581 20.0032 39.9581C13.2051 37.7907 13.2119 30.0505 13.2119 30.0505V20.0149V10.0433C13.2119 10.0433 12.9646 1.35159 20.0102 0.060051Z" fill="url(#paint2_linear_15231_121848)"/>
<path d="M20.0102 0.060051C14.7133 0.060051 9.63326 2.15983 5.88777 5.89749C2.14228 9.63506 0.0380864 14.7044 0.0380859 19.9902C0.0380855 25.276 2.14228 30.3454 5.88776 34.083C9.63326 37.8207 14.7063 39.9581 20.0032 39.9581C13.2051 37.7907 13.2119 30.0505 13.2119 30.0505V20.0149V10.0433C13.2119 10.0433 12.9646 1.35159 20.0102 0.060051Z" fill="url(#paint3_linear_15231_121848)" fill-opacity="0.3"/>
<path d="M20.0029 39.9569C13.2572 36.8909 13.2196 30.0474 13.2196 30.0474C13.2196 30.0474 4.85867 34.7536 2.04395 28.7343C2.04395 28.7343 6.80793 39.9968 20.0029 39.9569Z" fill="#6B93C0"/>
</g>
<defs>
<linearGradient id="paint0_linear_15231_121848" x1="37.6352" y1="17.7644" x2="8.63744" y2="46.4571" gradientUnits="userSpaceOnUse">
<stop stop-opacity="0.6"/>
<stop offset="0.655513" stop-opacity="0"/>
</linearGradient>
<linearGradient id="paint1_linear_15231_121848" x1="8.03957" y1="6.96589" x2="48.0815" y2="14.328" gradientUnits="userSpaceOnUse">
<stop stop-opacity="0.6"/>
<stop offset="0.645833" stop-opacity="0"/>
</linearGradient>
<linearGradient id="paint2_linear_15231_121848" x1="10.7337" y1="37.4516" x2="-1.10104" y2="0.920304" gradientUnits="userSpaceOnUse">
<stop stop-opacity="0.6"/>
<stop offset="0.675464" stop-opacity="0"/>
</linearGradient>
<linearGradient id="paint3_linear_15231_121848" x1="10.7337" y1="37.4516" x2="-1.10104" y2="0.920304" gradientUnits="userSpaceOnUse">
<stop stop-opacity="0.6"/>
<stop offset="0.675464" stop-opacity="0"/>
</linearGradient>
<clipPath id="clip0_15231_121848">
<rect width="40" height="40" fill="white"/>
</clipPath>
</defs>
</svg>
